<svg width="22" height="22" viewBox="0 0 22 22" fill="none" xmlns="http://www.w3.org/2000/svg">
<path d="M14.377 0H7.623C1.45933 0 0 1.45933 0 7.623V14.377C0 20.5407 1.45933 22 7.623 22H14.377C20.5407 22 22 20.5407 22 14.377V7.623C22 1.45933 20.5251 0 14.377 0ZM17.7613 15.6961H16.1627C15.5577 15.6961 15.3707 15.2148 14.2835 14.113C13.3366 13.1963 12.9177 13.0726 12.6848 13.0726C12.3585 13.0726 12.265 13.1661 12.265 13.6162V15.0599C12.265 15.4486 12.1413 15.6814 11.1164 15.6814C9.42425 15.6814 7.54508 14.6566 6.226 12.7463C4.23867 9.95225 3.69417 7.85583 3.69417 7.42133C3.69417 7.1885 3.78767 6.97125 4.23775 6.97125H5.83642C6.23975 6.97125 6.39558 7.15733 6.55142 7.59183C7.3425 9.87433 8.6625 11.8772 9.20608 11.8772C9.40775 11.8772 9.50125 11.7838 9.50125 11.2723V8.91092C9.43892 7.82375 8.86417 7.73117 8.86417 7.34342C8.86417 7.15642 9.02 6.97033 9.2675 6.97033H11.7828C12.1248 6.97033 12.2485 7.15642 12.2485 7.55975V10.7433C12.2485 11.0843 12.4043 11.209 12.4969 11.209C12.6986 11.209 12.87 11.0843 13.2422 10.7122C14.3917 9.42333 15.2139 7.436 15.2139 7.436C15.323 7.20317 15.5091 6.98592 15.9133 6.98592H17.512C17.9932 6.98592 18.1023 7.23342 17.9932 7.57533C17.7916 8.50758 15.8354 11.2704 15.8354 11.2704C15.6649 11.55 15.6026 11.6737 15.8354 11.9854C16.0059 12.2183 16.5651 12.6995 16.9382 13.134C17.6211 13.9104 18.1482 14.5622 18.2884 15.0132C18.4443 15.4623 18.2105 15.6952 17.7604 15.6952L17.7613 15.6961Z" fill="#262626"/>
</svg>
